PathFileType	4	(X/Y/Z)	./resultDataOpenSim/trcMotMarkerGrf/sub10/qtm-13-04.trc
DataRate	CameraRate	NumFrames	NumMarkers	Units	OrigDataRate	OrigDataStartFrame	OrigNumFrames
250.000000	250.000000	14	24	m	250.000000	60	479
Frame#	Time	L.Toe.Tip			R.Toe.Tip			L.Ankle.Lat			R.Ankle.Lat			L.Ankle.Med			R.Ankle.Med			L.Heel			R.Heel			L.Knee.Lat			R.Knee.Lat			L.Knee.Med			R.Knee.Med			L.Thigh.Upper			R.Thigh.Upper			L.ASIS			R.ASIS			V.Sacral			L.Acromium			R.Acromium			C7			L.Elbow			R.Elbow			L.Wrist.Lat			R.Wrist.Lat
		X1	Y1	Z1	X2	Y2	Z2	X3	Y3	Z3	X4	Y4	Z4	X5	Y5	Z5	X6	Y6	Z6	X7	Y7	Z7	X8	Y8	Z8	X9	Y9	Z9	X10	Y10	Z10	X11	Y11	Z11	X12	Y12	Z12	X13	Y13	Z13	X14	Y14	Z14	X15	Y15	Z15	X16	Y16	Z16	X17	Y17	Z17	X18	Y18	Z18	X19	Y19	Z19	X20	Y20	Z20	X21	Y21	Z21	X22	Y22	Z22	X23	Y23	Z23	X24	Y24	Z24

60	0.236	-1.4138347	0.056290663	-0.25663998	-0.70168996	0.039468771	-0.065123497	-1.4089821	0.18838687	-0.31032043	-0.84854783	0.051363939	-0.032649197	-1.390296	0.19285266	-0.22842841	-0.82392819	0.081163027	-0.11486533	-1.4581967	0.23896392	-0.27209524	-0.89297022	0.028913637	-0.083701436	-1.0996884	0.41436142	-0.30648643	-0.84108693	0.45015736	0.0050024344	-1.0936658	0.37520637	-0.19159963	-0.83484683	0.45993227	-0.12230476	-0.99667503	0.78292016	-0.33019032	-0.9525905	0.85707138	0.052653269	-0.92011054	0.8918503	-0.27194623	-0.89973593	0.93486173	-0.040269837	-1.108411	0.93768152	-0.13940231	-0.96034209	1.3921604	-0.29163041	-1.02094	1.373234	0.026086715	-1.0746284	1.4104291	-0.14948446	-1.0197559	1.0504435	-0.37882327	-1.130102	1.0378907	0.043714937	-0.79896281	0.92826193	-0.36013099	-1.0321067	0.85064903	0.17098873
61	0.24	-1.4072275	0.058449113	-0.25724407	-0.70163909	0.039396536	-0.065147384	-1.3987447	0.19105826	-0.31005558	-0.84858405	0.051345871	-0.032508149	-1.3801175	0.19498847	-0.22807661	-0.82384133	0.081220054	-0.11475436	-1.4463512	0.24265526	-0.27126818	-0.89302411	0.028908646	-0.083616434	-1.087388	0.41414091	-0.30631896	-0.83869729	0.45038665	0.0053842078	-1.0818901	0.37486312	-0.19118437	-0.83168632	0.46013173	-0.12178745	-0.98946354	0.78338595	-0.32931169	-0.94757375	0.85785055	0.053562852	-0.91373075	0.89274919	-0.27096559	-0.89307134	0.93570962	-0.039349942	-1.1026901	0.93842987	-0.13923415	-0.95448956	1.3932713	-0.29080258	-1.0141087	1.3739223	0.027119092	-1.0685743	1.4115926	-0.14820026	-1.0154935	1.0520758	-0.37836327	-1.1224575	1.0384588	0.045273065	-0.79556971	0.92803291	-0.35998088	-1.0245041	0.85068172	0.17170747
62	0.244	-1.3996139	0.060827818	-0.2579595	-0.70159294	0.039332902	-0.065153438	-1.3884817	0.19370464	-0.30965974	-0.84863039	0.051328988	-0.032364389	-1.3698456	0.19700856	-0.22761517	-0.82373088	0.081293993	-0.11462854	-1.4348418	0.24599687	-0.27022359	-0.89306898	0.028904196	-0.083537966	-1.0753252	0.41399193	-0.30609215	-0.83644616	0.45063373	0.0056905199	-1.0700601	0.3748231	-0.19070402	-0.82869002	0.4603783	-0.12128647	-0.98233442	0.78392247	-0.32841774	-0.94321811	0.85845072	0.054242301	-0.90760192	0.89368301	-0.27011154	-0.88643005	0.93659514	-0.038343692	-1.0970379	0.93916887	-0.13919383	-0.94863117	1.3944097	-0.29001418	-1.0072985	1.3746622	0.028141503	-1.0624846	1.4128323	-0.14691553	-1.0112163	1.0537136	-0.37790503	-1.1147905	1.0390719	0.046930872	-0.7922518	0.92776256	-0.35983759	-1.0168318	0.85073536	0.1723725
63	0.248	-1.3909341	0.063319736	-0.25870451	-0.70155118	0.039279072	-0.06516154	-1.3781587	0.19632797	-0.30913766	-0.84871861	0.051313226	-0.032232362	-1.3594537	0.19893351	-0.22704934	-0.82360326	0.081374394	-0.11449978	-1.423534	0.24900519	-0.26910766	-0.89310988	0.028898959	-0.083469105	-1.0636271	0.41381957	-0.30584032	-0.83421004	0.45088342	0.0059782542	-1.0582026	0.37503133	-0.1901599	-0.82580367	0.46064001	-0.12081259	-0.97527763	0.78453566	-0.32753319	-0.93955493	0.85887391	0.054661899	-0.901634	0.89468934	-0.26933487	-0.87990147	0.93750822	-0.037251494	-1.0914189	0.93990886	-0.13927191	-0.94277612	1.3955711	-0.28926045	-1.0005081	1.3754612	0.029147672	-1.0563782	1.4141339	-0.1456583	-1.0069205	1.0553548	-0.37742184	-1.1071351	1.0397341	0.048621087	-0.78899619	0.92745066	-0.35969344	-1.00898	0.85082695	0.17298168
64	0.252	-1.3812294	0.065757677	-0.25935929	-0.70152077	0.039237606	-0.06517688	-1.3677422	0.1988934	-0.3084948	-0.84885749	0.051300869	-0.032115685	-1.3488193	0.20080453	-0.22640125	-0.82347893	0.081453883	-0.11437503	-1.412312	0.25170872	-0.26802251	-0.89315285	0.028894764	-0.083412384	-1.0521588	0.41366005	-0.30557124	-0.83198636	0.45110888	0.0063093495	-1.0462746	0.375457	-0.18955357	-0.82305696	0.46088942	-0.12037746	-0.96827868	0.78524854	-0.32667616	-0.93609472	0.85922013	0.054965875	-0.89569906	0.89581152	-0.2685628	-0.87359649	0.93843813	-0.036093055	-1.0858258	0.94066365	-0.13945609	-0.93694377	1.3967567	-0.28853065	-0.99371993	1.3763276	0.0301257	-1.0502702	1.4154871	-0.14443298	-1.0026097	1.0570032	-0.37690512	-1.0995696	1.0404377	0.050156823	-0.7857872	0.92710476	-0.35953789	-1.0008309	0.85097546	0.17354561
65	0.256	-1.370596	0.067997118	-0.25981366	-0.70151255	0.039208109	-0.065194449	-1.3571874	0.20133801	-0.30773449	-0.84903051	0.051292458	-0.032013488	-1.3377545	0.20267039	-0.22571217	-0.82337743	0.081528454	-0.11425955	-1.4012047	0.25413088	-0.26696927	-0.89320163	0.028894252	-0.083368141	-1.0406996	0.41360678	-0.3052665	-0.82982595	0.4512987	0.0066913387	-1.0341515	0.37607651	-0.18889937	-0.82053089	0.46111466	-0.11998012	-0.96132379	0.78608915	-0.32584778	-0.93232345	0.85960519	0.055304009	-0.88975836	0.89706958	-0.26777174	-0.86775335	0.93934991	-0.034945418	-1.0802697	0.94144546	-0.13974029	-0.93114361	1.397971	-0.28781777	-0.98694837	1.3772594	0.031072021	-1.044178	1.4168747	-0.14323156	-0.99829396	1.0586638	-0.37636994	-1.0921929	1.0411727	0.051311899	-0.7826194	0.92673893	-0.35936948	-0.99239896	0.85118827	0.17407225
66	0.26	-1.3591203	0.069976916	-0.26004185	-0.70153622	0.039187204	-0.065209531	-1.3464438	0.20360243	-0.30686061	-0.84921384	0.051287867	-0.031928156	-1.3261932	0.20455575	-0.22500284	-0.82330669	0.081595213	-0.1141572	-1.3902631	0.25627178	-0.26593768	-0.89325718	0.028898274	-0.083332717	-1.0291348	0.41371967	-0.3049011	-0.82777038	0.45145987	0.0070969425	-1.0218194	0.3768415	-0.18821739	-0.81824635	0.46131787	-0.11961061	-0.95441553	0.787059	-0.32504807	-0.92815283	0.86007743	0.055697852	-0.88384635	0.89845967	-0.26699392	-0.86251491	0.94021997	-0.033880682	-1.0747477	0.94226287	-0.14011078	-0.92537599	1.399211	-0.28712112	-0.98023411	1.3782484	0.031987824	-1.0381238	1.4182696	-0.14205843	-0.99398148	1.0603387	-0.37583096	-1.0850032	1.0419358	0.052068877	-0.77950119	0.92636836	-0.35918926	-0.98388174	0.85145259	0.1745469
67	0.264	-1.3468511	0.071722847	-0.26011537	-0.70159336	0.039172074	-0.065221991	-1.3354753	0.20565473	-0.30588322	-0.84938751	0.05128936	-0.031861749	-1.3143438	0.206427	-0.2242376	-0.82326303	0.081650968	-0.11406849	-1.3794572	0.25809534	-0.26493903	-0.89332	0.028905046	-0.083301899	-1.0174423	0.41401565	-0.30447381	-0.82582829	0.45159996	0.0075002493	-1.0094678	0.37768746	-0.18752361	-0.81613421	0.46150382	-0.11926614	-0.9475876	0.78811906	-0.32428654	-0.92375405	0.86062677	0.056101714	-0.87794746	0.89997818	-0.26625504	-0.85763606	0.94107882	-0.032865819	-1.069238	0.94312392	-0.14054339	-0.91963556	1.4004715	-0.2864413	-0.97359113	1.3792904	0.032870946	-1.0321261	1.4196496	-0.14093064	-0.98967584	1.0620269	-0.37528646	-1.0778282	1.0427306	0.052753318	-0.77645021	0.92600311	-0.35899672	-0.97548883	0.85174938	0.17494992
68	0.268	-1.3338444	0.073294123	-0.26011578	-0.7016749	0.039162719	-0.065232738	-1.3242697	0.20749395	-0.304824	-0.84954145	0.051299552	-0.031811044	-1.3025015	0.20820436	-0.22336258	-0.82323728	0.081693982	-0.11399103	-1.3687427	0.2595503	-0.26392373	-0.89339059	0.028912284	-0.083275739	-1.0056495	0.41449148	-0.30401689	-0.82398733	0.45171266	0.0078846653	-0.99728362	0.3785732	-0.18683291	-0.81412008	0.46167254	-0.11894995	-0.94088147	0.78923243	-0.32356408	-0.91923788	0.86122789	0.056494583	-0.87199857	0.9016257	-0.26554867	-0.85272216	0.94198	-0.031802526	-1.0637254	0.94403292	-0.14101398	-0.91391523	1.4017537	-0.2857829	-0.96700133	1.3803887	0.033720971	-1.0261894	1.421006	-0.13985621	-0.98538235	1.063722	-0.37472952	-1.0704753	1.0435595	0.053751791	-0.77348109	0.92564531	-0.35879592	-0.96724399	0.85207761	0.17528058
69	0.272	-1.3202217	0.074718351	-0.26003787	-0.70176746	0.039160748	-0.065239819	-1.3128316	0.20913605	-0.30371028	-0.84967693	0.051318203	-0.031770361	-1.2907382	0.2098256	-0.22237083	-0.82322102	0.081726128	-0.11392164	-1.3580997	0.26061241	-0.26279824	-0.89346628	0.028920687	-0.083258668	-0.99383705	0.41512982	-0.30356933	-0.82223571	0.45177714	0.0082366819	-0.98524889	0.37950043	-0.18616657	-0.81217129	0.46181626	-0.11866399	-0.93429266	0.79041387	-0.32284539	-0.91461393	0.86186638	0.056884909	-0.86601205	0.90337893	-0.26487652	-0.84763819	0.94294763	-0.03064901	-1.0582195	0.9449879	-0.14150566	-0.90822243	1.4030614	-0.28515051	-0.96044312	1.3815467	0.03454206	-1.0203081	1.4223392	-0.13882588	-0.98110775	1.065417	-0.37415901	-1.0629088	1.0444149	0.055158707	-0.77059965	0.92529327	-0.35859492	-0.95901089	0.85245601	0.17554519
70	0.276	-1.3061327	0.075979743	-0.25981	-0.70186065	0.039166983	-0.065239606	-1.301171	0.21059314	-0.30256053	-0.84979802	0.051341828	-0.031735103	-1.2789076	0.21127754	-0.22130458	-0.82321096	0.081751875	-0.11385748	-1.347478	0.26130178	-0.26153651	-0.89354051	0.028933359	-0.083253325	-0.98207748	0.4159043	-0.30314153	-0.8205666	0.45177429	0.0085519616	-0.97325757	0.38049283	-0.18553675	-0.81026448	0.4619193	-0.1184083	-0.92775866	0.79171647	-0.32207262	-0.90988051	0.86255422	0.057279182	-0.86008173	0.90518935	-0.26426068	-0.84246595	0.94397831	-0.029438845	-1.0527526	0.94598766	-0.14202059	-0.90258614	1.4043938	-0.28453474	-0.95390008	1.3827598	0.035334446	-1.0144758	1.4236528	-0.13782842	-0.97685355	1.0671148	-0.37357652	-1.0552068	1.0452861	0.056827112	-0.76781033	0.92494901	-0.35839897	-0.9506599	0.85290183	0.17574361
71	0.28	-1.2916831	0.077055325	-0.25940406	-0.70194952	0.0391806	-0.065229848	-1.2893032	0.21186084	-0.30137585	-0.84990323	0.05136484	-0.031702314	-1.266874	0.21255998	-0.22020897	-0.82320839	0.081775247	-0.11379449	-1.3367914	0.2616647	-0.26019924	-0.89360691	0.02895119	-0.083254706	-0.97034072	0.41679484	-0.30270431	-0.81897131	0.45170425	0.0088433109	-0.96136219	0.3815602	-0.18490957	-0.80836928	0.46196647	-0.11817776	-0.9212308	0.79317272	-0.32124065	-0.90502014	0.86332998	0.057670308	-0.85426321	0.90701755	-0.26370746	-0.837283	0.94506515	-0.028218369	-1.0473572	0.94703617	-0.14257744	-0.8970408	1.4057466	-0.28392045	-0.94737842	1.3840155	0.036097578	-1.0086874	1.4249507	-0.13686345	-0.9726178	1.0688219	-0.37298504	-1.0474269	1.0461662	0.058611411	-0.7651172	0.92461663	-0.35820384	-0.94215926	0.85341712	0.17587852
72	0.284	-1.2769298	0.077942694	-0.25888125	-0.70203461	0.039199462	-0.065209432	-1.277256	0.21292198	-0.30015231	-0.84998631	0.051381988	-0.031671417	-1.2546183	0.21365778	-0.21910589	-0.8232146	0.081798301	-0.11372557	-1.3259743	0.26173856	-0.25885628	-0.89366197	0.028971901	-0.08325227	-0.95854948	0.4177886	-0.3022097	-0.81743639	0.45158642	0.009132243	-0.94977089	0.38268354	-0.18421168	-0.80648161	0.46195104	-0.11795562	-0.91474764	0.79475915	-0.32043979	-0.89993133	0.86423059	0.058062823	-0.84853141	0.90884577	-0.26320005	-0.83212623	0.94619761	-0.027013891	-1.0420123	0.94813751	-0.14314134	-0.89161983	1.4071166	-0.28331161	-0.94092393	1.3853028	0.03684357	-1.0029343	1.426237	-0.13593323	-0.96839742	1.0705341	-0.3723884	-1.0395673	1.0470431	0.06045418	-0.76252152	0.92429241	-0.35799709	-0.933541	0.85399463	0.17596099
73	0.288	-1.2618915	0.078663345	-0.25833262	-0.70211989	0.039220869	-0.065175975	-1.2650645	0.21376471	-0.29890566	-0.8500346	0.051392655	-0.031643846	-1.2421938	0.21455991	-0.21799664	-0.8232291	0.081822306	-0.11364258	-1.3150123	0.26153372	-0.25752611	-0.8937025	0.028994523	-0.083241747	-0.94671401	0.41886897	-0.30163119	-0.81594704	0.45144587	0.0094343292	-0.93853247	0.38384243	-0.18340889	-0.80464191	0.46187162	-0.11771609	-0.90839262	0.79642347	-0.31977451	-0.89447234	0.86525348	0.058496252	-0.84284485	0.9106649	-0.26272913	-0.82701731	0.94736093	-0.025837902	-1.0365962	0.94928796	-0.14353439	-0.88635374	1.4085027	-0.28273032	-0.93458885	1.3866174	0.037592003	-0.99720225	1.4275166	-0.13503115	-0.96417048	1.0722414	-0.37177871	-1.031594	1.0478946	0.062351936	-0.76003014	0.92396342	-0.35777174	-0.92483908	0.85462943	0.17600367
